<?xml version="1.0" encoding="utf-8"?>
<!-- Generator: Adobe Illustrator 16.0.0, SVG Export Plug-In . SVG Version: 6.00 Build 0)  -->
<!DOCTYPE svg PUBLIC "-//W3C//DTD SVG 1.1//EN" "http://www.w3.org/Graphics/SVG/1.1/DTD/svg11.dtd">
<svg version="1.1" id="Layer_1" xmlns="http://www.w3.org/2000/svg" xmlns:xlink="http://www.w3.org/1999/xlink" x="0px" y="0px"
	 width="868.306px" height="868.302px" viewBox="0 0 868.306 868.302" enable-background="new 0 0 868.306 868.302"
	 xml:space="preserve">
<path fill="#010101" d="M434.15,0C194.38,0,0,194.376,0,434.151c0,239.767,194.38,434.15,434.15,434.15
	c239.788,0,434.155-194.384,434.155-434.15C868.306,194.376,673.938,0,434.15,0 M710.18,426.655
	c-1.933,4.481-6.394,7.496-10.888,7.496h-56.744v252.706c0,6.419-6.004,7.784-12.397,7.784H514.846
	c-6.394,0-11.227-1.365-11.227-7.784V494.933H364.687v191.925c0,6.419-4.824,7.784-11.227,7.784H238.186
	c-6.398,0-12.427-1.365-12.427-7.784V434.151h-56.732c-4.481,0-8.963-3.015-10.896-7.496c-1.268-4.478-0.636-9.184,2.562-13.033
	l265.133-265.247c4.481-4.481,12.185-4.532,16.662-0.051l265.133,265.323C710.824,417.497,711.443,422.178,710.18,426.655"/>
</svg>
