<?xml version="1.0" encoding="utf-8"?>
<!-- Generator: Adobe Illustrator 16.0.0, SVG Export Plug-In . SVG Version: 6.00 Build 0)  -->
<!DOCTYPE svg PUBLIC "-//W3C//DTD SVG 1.1//EN" "http://www.w3.org/Graphics/SVG/1.1/DTD/svg11.dtd">
<svg version="1.1" id="Layer_1" xmlns="http://www.w3.org/2000/svg" xmlns:xlink="http://www.w3.org/1999/xlink" x="0px" y="0px"
	 width="71.474px" height="52.843px" viewBox="0 0 71.474 52.843" enable-background="new 0 0 71.474 52.843" xml:space="preserve">
<path fill="#010101" d="M71.474,3.84c0,2.121-1.719,3.84-3.84,3.84H3.84C1.719,7.681,0,5.961,0,3.84l0,0C0,1.719,1.719,0,3.84,0
	h63.793C69.754,0,71.474,1.719,71.474,3.84L71.474,3.84z"/>
<path fill="#010101" d="M71.474,14.875c0,2.121-1.719,3.84-3.84,3.84H3.84c-2.121,0-3.84-1.719-3.84-3.84l0,0
	c0-2.121,1.719-3.84,3.84-3.84h63.793C69.754,11.035,71.474,12.754,71.474,14.875L71.474,14.875z"/>
<path fill="#010101" d="M71.474,26.232c0,2.121-1.719,3.84-3.84,3.84H3.84c-2.121,0-3.84-1.719-3.84-3.84l0,0
	c0-2.121,1.719-3.84,3.84-3.84h63.793C69.754,22.392,71.474,24.111,71.474,26.232L71.474,26.232z"/>
<path fill="#010101" d="M71.474,37.053c0,2.121-1.719,3.84-3.84,3.84H3.84c-2.121,0-3.84-1.719-3.84-3.84l0,0
	c0-2.121,1.719-3.84,3.84-3.84h63.793C69.754,33.213,71.474,34.932,71.474,37.053L71.474,37.053z"/>
<path fill="#010101" d="M71.474,49.003c0,2.121-1.719,3.84-3.84,3.84H3.84c-2.121,0-3.84-1.719-3.84-3.84l0,0
	c0-2.121,1.719-3.84,3.84-3.84h63.793C69.754,45.163,71.474,46.882,71.474,49.003L71.474,49.003z"/>
</svg>
